<svg data-v-423bf9ae="" xmlns="http://www.w3.org/2000/svg" viewBox="0 0 492.8571812265498 194" class="iconAboveSlogan"><!----><!----><!----><g data-v-423bf9ae="" id="1adadf79-73bb-4fdd-8b4f-b9c6fe2795df" fill="#ffffff" transform="matrix(6.1224493980407715,0,0,6.1224493980407715,-2.9999866485595703,85.37303161621094)"><path d="M7.71 10.07C7.32 10.91 6.37 11.48 5.39 11.48C3.85 11.48 2.62 10.16 2.62 8.54C2.62 6.93 3.85 5.60 5.39 5.60C6.36 5.60 7.31 6.13 7.70 6.99L10.04 6.99C9.39 5.04 7.56 3.64 5.39 3.64C2.69 3.64 0.49 5.84 0.49 8.54C0.49 11.24 2.69 13.44 5.39 13.44C7.56 13.44 9.41 12.03 10.05 10.07ZM14.42 11.84C13.29 11.84 12.98 11.02 12.98 10.23C12.98 9.46 13.31 8.64 14.42 8.64C15.51 8.64 15.85 9.46 15.85 10.23C15.85 11.02 15.54 11.84 14.42 11.84ZM14.42 7.00C12.49 7.00 10.89 8.29 10.89 10.22C10.89 12.19 12.45 13.43 14.42 13.43C16.38 13.43 17.93 12.19 17.93 10.22C17.93 8.29 16.34 7.00 14.42 7.00ZM25.58 9.80C25.58 8.12 24.91 6.99 23.25 6.99C22.44 6.99 21.78 7.35 21.36 7.88L21.36 7.13L19.26 7.13L19.26 13.30L21.36 13.30L21.36 10.22C21.36 9.38 21.88 8.68 22.54 8.68C23.20 8.68 23.48 9.07 23.48 9.80L23.48 13.30L25.58 13.30ZM33.36 9.80C33.36 8.12 32.69 6.99 31.04 6.99C30.23 6.99 29.57 7.35 29.15 7.88L29.15 7.13L27.05 7.13L27.05 13.30L29.15 13.30L29.15 10.22C29.15 9.38 29.67 8.68 30.32 8.68C30.98 8.68 31.26 9.07 31.26 9.80L31.26 13.30L33.36 13.30ZM36.74 9.48C36.74 9.48 36.81 8.33 38.12 8.33C39.40 8.33 39.49 9.48 39.49 9.48ZM41.51 10.08C41.51 8.11 39.96 6.99 38.08 6.99C36.01 6.99 34.48 8.29 34.48 10.22C34.48 12.18 35.95 13.44 38.08 13.44C39.72 13.44 41.03 12.63 41.40 11.00L39.26 11.00C39.24 11.45 38.78 11.94 38.04 11.94C37.21 11.94 36.71 11.19 36.71 10.47L41.50 10.47C41.50 10.35 41.51 10.21 41.51 10.08ZM45.99 8.62C46.72 8.62 47.18 9.00 47.21 9.60L49.29 9.60C49.20 8.18 47.92 6.99 45.92 6.99C43.86 6.99 42.49 8.46 42.49 10.22C42.49 11.98 43.78 13.44 45.92 13.44C47.80 13.44 49.04 12.38 49.25 11.00L47.21 11.00C47.14 11.56 46.63 11.84 45.99 11.84C45.01 11.84 44.73 10.95 44.73 10.23C44.73 9.53 45.04 8.62 45.99 8.62ZM53.21 8.75L54.33 8.75L54.33 7.13L53.21 7.13L53.21 4.77L51.13 4.77L51.13 7.13L50.01 7.13L50.01 8.75L51.13 8.75L51.13 13.30L53.21 13.30ZM55.34 5.01C55.34 5.68 55.89 6.24 56.57 6.24C57.25 6.24 57.81 5.68 57.81 5.01C57.81 4.33 57.25 3.78 56.57 3.78C55.89 3.78 55.34 4.33 55.34 5.01ZM57.62 13.30L57.62 7.13L55.52 7.13L55.52 13.30ZM62.55 11.84C61.42 11.84 61.11 11.02 61.11 10.23C61.11 9.46 61.45 8.64 62.55 8.64C63.64 8.64 63.98 9.46 63.98 10.23C63.98 11.02 63.67 11.84 62.55 11.84ZM62.55 7.00C60.62 7.00 59.02 8.29 59.02 10.22C59.02 12.19 60.58 13.43 62.55 13.43C64.51 13.43 66.07 12.19 66.07 10.22C66.07 8.29 64.47 7.00 62.55 7.00ZM73.71 9.80C73.71 8.12 73.04 6.99 71.39 6.99C70.57 6.99 69.92 7.35 69.50 7.88L69.50 7.13L67.40 7.13L67.40 13.30L69.50 13.30L69.50 10.22C69.50 9.38 70.01 8.68 70.67 8.68C71.33 8.68 71.61 9.07 71.61 9.80L71.61 13.30L73.71 13.30ZM80.89 9.00C80.71 7.59 79.52 6.99 77.90 6.99C75.85 6.99 74.89 7.69 74.89 8.95C74.89 11.19 78.88 10.16 78.88 11.47C78.88 11.80 78.47 11.98 77.99 11.98C77.53 11.98 76.71 11.93 76.71 11.00L74.62 11.00C74.73 12.75 76.12 13.44 77.95 13.44C79.74 13.44 80.99 12.91 80.99 11.45C80.99 8.85 77.00 9.73 77.00 8.86C77.00 8.50 77.43 8.29 77.84 8.29C78.25 8.29 78.76 8.44 78.83 9.00Z"></path></g><!----><g data-v-423bf9ae="" id="26129888-61ad-43bd-a3cc-a4f57a23ffe1" transform="matrix(1.0255553722381592,0,0,1.0255553722381592,195.32223510742188,-3.4290401935577393)" stroke="none" fill="#6FFF06"><path d="M8.6 68.4c0 5.1 4.1 9.2 9.2 9.2 2.6 0 4.9-1.1 6.6-2.8l16.8 9.7c-.2.8-.4 1.6-.4 2.5 0 5.1 4.1 9.2 9.2 9.2s9.2-4.1 9.2-9.2c0-.9-.1-1.7-.4-2.5l16.8-9.7c1.7 1.7 4 2.8 6.6 2.8 5.1 0 9.2-4.1 9.2-9.2 0-4.3-3-8-7.1-8.9V40.6c4-1 7.1-4.6 7.1-8.9 0-5.1-4.1-9.2-9.2-9.2-2.6 0-5 1.1-6.7 2.9l-16.7-9.7c.2-.8.4-1.7.4-2.6 0-5.1-4.1-9.2-9.2-9.2s-9.2 4.1-9.2 9.2c0 .9.1 1.8.4 2.6l-16.7 9.7c-1.7-1.8-4-2.9-6.7-2.9-5.1 0-9.2 4.1-9.2 9.2 0 4.3 2.9 7.9 6.9 8.9v19c-4 .9-6.9 4.5-6.9 8.8zm9.2 4.9c-2.7 0-4.9-2.2-4.9-4.9s2.2-4.9 4.9-4.9 4.9 2.2 4.9 4.9-2.2 4.9-4.9 4.9zM50 91.9c-2.7 0-4.9-2.2-4.9-4.9s2.2-4.9 4.9-4.9 4.9 2.2 4.9 4.9-2.2 4.9-4.9 4.9zm37.2-23.5c0 2.7-2.2 4.9-4.9 4.9s-4.9-2.2-4.9-4.9 2.2-4.9 4.9-4.9 4.9 2.2 4.9 4.9zm-5-41.7c2.7 0 4.9 2.2 4.9 4.9s-2.2 4.9-4.9 4.9-4.9-2.2-4.9-4.9 2.2-4.9 4.9-4.9zM50 8.1c2.7 0 4.9 2.2 4.9 4.9 0 .8-.2 1.6-.6 2.3l-.1.1v.1C53.4 17 51.8 18 50 18c-2.7 0-4.9-2.2-4.9-4.9 0-2.8 2.2-5 4.9-5zm-6.7 11.2c1.7 1.8 4 2.9 6.7 2.9 2.6 0 5-1.1 6.7-2.9L73.4 29c-.2.8-.4 1.7-.4 2.6 0 4.3 3 8 7.1 8.9v18.9c-4 1-7.1 4.6-7.1 8.9 0 1 .1 1.9.4 2.8l-16.7 9.6c-1.7-1.8-4.1-3-6.8-3s-5.1 1.2-6.8 3l-16.7-9.6c.3-.9.4-1.8.4-2.8 0-4.4-3.1-8.1-7.2-9V40.5c4.1-.9 7.3-4.6 7.3-9 0-.9-.1-1.8-.4-2.6l16.8-9.6zM12.8 31.6c0-2.7 2.2-4.9 4.9-4.9s4.9 2.2 4.9 4.9-2.2 4.9-4.9 4.9-4.9-2.2-4.9-4.9zm37.4 29.3c6 0 10.9-4.9 10.9-10.9s-4.9-10.9-10.9-10.9S39.3 44 39.3 50s4.9 10.9 10.9 10.9zm0-17.6a6.7 6.7 0 1 1 0 13.4 6.7 6.7 0 0 1 0-13.4zm-16-2.7c.6-1 1.9-1.3 2.9-.7 1 .6 1.3 1.9.7 2.9-.6 1-1.9 1.3-2.9.7-1-.6-1.3-1.9-.7-2.9zm-5.9-3.4c.6-1 1.9-1.3 2.9-.7 1 .6 1.3 1.9.7 2.9-.6 1-1.9 1.3-2.9.7-1-.6-1.3-1.9-.7-2.9zm33.9 20c.6-1 1.9-1.3 2.9-.7 1 .6 1.3 1.9.7 2.9-.6 1-1.9 1.3-2.9.7-1-.6-1.3-1.9-.7-2.9zm5.8 3.5c.6-1 1.9-1.3 2.9-.7 1 .6 1.3 1.9.7 2.9-.6 1-1.9 1.3-2.9.7-.9-.6-1.2-1.9-.7-2.9zm.2-21.1c-.6-1-.2-2.3.8-2.9 1-.6 2.3-.2 2.9.8.6 1 .2 2.3-.8 2.9-1 .6-2.3.3-2.9-.8zM62.3 43c-.6-1-.2-2.3.8-2.9 1-.6 2.3-.2 2.9.8.6 1 .2 2.3-.8 2.9-1 .6-2.3.2-2.9-.8zM28.1 62.5c-.6-1-.2-2.3.8-2.9 1-.6 2.3-.2 2.9.8.6 1 .2 2.3-.8 2.9-1.1.6-2.3.2-2.9-.8zm5.9-3.4c-.6-1-.2-2.3.8-2.9 1-.6 2.3-.2 2.9.8.6 1 .2 2.3-.8 2.9-1 .6-2.3.2-2.9-.8zm13.9-32.2c0-1.2 1-2.1 2.1-2.1 1.2 0 2.1 1 2.1 2.1 0 1.2-1 2.1-2.1 2.1-1.2 0-2.1-.9-2.1-2.1zm0 6.8c0-1.2 1-2.1 2.1-2.1 1.2 0 2.1.9 2.1 2.1 0 1.2-1 2.1-2.1 2.1-1.2.1-2.1-.9-2.1-2.1zm4.2 39.4c0 1.2-1 2.1-2.1 2.1-1.2 0-2.1-1-2.1-2.1 0-1.2 1-2.1 2.1-2.1 1.2 0 2.1.9 2.1 2.1zm0-6.8c0 1.2-1 2.1-2.1 2.1-1.2 0-2.1-.9-2.1-2.1 0-1.2 1-2.1 2.1-2.1 1.2 0 2.1.9 2.1 2.1z"></path></g><!----><g data-v-423bf9ae="" id="2975fe7a-96af-4c0d-b9e7-b784f87873ca" fill="#ffffff" transform="matrix(1.4478764533996582,0,0,1.4478764533996582,61.78890609741211,201.86053466796875)"><path d="M8.76 10.68L8.76 10.68Q8.37 11.86 7.40 12.51L7.40 12.51L7.40 12.51Q6.43 13.16 5.07 13.16L5.07 13.16L5.07 13.16Q3.81 13.16 2.86 12.58L2.86 12.58L2.86 12.58Q1.90 12.00 1.39 10.92L1.39 10.92L1.39 10.92Q0.87 9.84 0.87 8.40L0.87 8.40L0.87 8.40Q0.87 6.96 1.39 5.88L1.39 5.88L1.39 5.88Q1.90 4.80 2.86 4.22L2.86 4.22L2.86 4.22Q3.81 3.64 5.05 3.64L5.05 3.64L5.05 3.64Q7.83 3.64 8.64 5.92L8.64 5.92L7.95 6.24L7.95 6.24Q7.63 5.26 6.92 4.77L6.92 4.77L6.92 4.77Q6.22 4.28 5.10 4.28L5.10 4.28L5.10 4.28Q4.06 4.28 3.27 4.78L3.27 4.78L3.27 4.78Q2.48 5.28 2.04 6.21L2.04 6.21L2.04 6.21Q1.61 7.14 1.61 8.40L1.61 8.40L1.61 8.40Q1.61 9.66 2.04 10.59L2.04 10.59L2.04 10.59Q2.46 11.52 3.24 12.02L3.24 12.02L3.24 12.02Q4.02 12.52 5.07 12.52L5.07 12.52L5.07 12.52Q6.19 12.52 6.97 11.97L6.97 11.97L6.97 11.97Q7.76 11.42 8.06 10.42L8.06 10.42L8.76 10.68ZM21.49 3.64L21.49 3.64Q22.79 3.64 23.75 4.22L23.75 4.22L23.75 4.22Q24.71 4.80 25.23 5.87L25.23 5.87L25.23 5.87Q25.75 6.94 25.75 8.40L25.75 8.40L25.75 8.40Q25.75 9.86 25.23 10.93L25.23 10.93L25.23 10.93Q24.71 12.00 23.75 12.58L23.75 12.58L23.75 12.58Q22.79 13.16 21.49 13.16L21.49 13.16L21.49 13.16Q20.19 13.16 19.23 12.58L19.23 12.58L19.23 12.58Q18.27 12.00 17.75 10.93L17.75 10.93L17.75 10.93Q17.23 9.86 17.23 8.40L17.23 8.40L17.23 8.40Q17.23 6.94 17.75 5.87L17.75 5.87L17.75 5.87Q18.27 4.80 19.23 4.22L19.23 4.22L19.23 4.22Q20.19 3.64 21.49 3.64L21.49 3.64ZM21.49 4.28L21.49 4.28Q20.41 4.28 19.62 4.78L19.62 4.78L19.62 4.78Q18.83 5.28 18.40 6.21L18.40 6.21L18.40 6.21Q17.98 7.14 17.98 8.40L17.98 8.40L17.98 8.40Q17.98 9.66 18.40 10.59L18.40 10.59L18.40 10.59Q18.83 11.52 19.62 12.02L19.62 12.02L19.62 12.02Q20.41 12.52 21.49 12.52L21.49 12.52L21.49 12.52Q22.57 12.52 23.37 12.02L23.37 12.02L23.37 12.02Q24.16 11.52 24.59 10.59L24.59 10.59L24.59 10.59Q25.02 9.66 25.02 8.40L25.02 8.40L25.02 8.40Q25.02 7.14 24.59 6.21L24.59 6.21L24.59 6.21Q24.16 5.28 23.37 4.78L23.37 4.78L23.37 4.78Q22.57 4.28 21.49 4.28L21.49 4.28ZM42.17 3.78L42.17 13.02L41.30 13.02L36.40 5.77L35.71 4.54L35.70 4.54L35.74 5.70L35.74 13.02L35.07 13.02L35.07 3.78L35.95 3.78L40.84 11.02L41.54 12.26L41.51 11.10L41.51 3.78L42.17 3.78ZM59.18 3.78L59.18 13.02L58.31 13.02L53.41 5.77L52.72 4.54L52.71 4.54L52.75 5.70L52.75 13.02L52.08 13.02L52.08 3.78L52.96 3.78L57.85 11.02L58.55 12.26L58.52 11.10L58.52 3.78L59.18 3.78ZM69.79 12.38L75.63 12.38L75.63 13.02L69.09 13.02L69.09 3.78L75.40 3.78L75.40 4.42L69.79 4.42L69.79 7.99L74.23 7.99L74.23 8.65L69.79 8.65L69.79 12.38ZM91.71 10.68L91.71 10.68Q91.32 11.86 90.35 12.51L90.35 12.51L90.35 12.51Q89.38 13.16 88.02 13.16L88.02 13.16L88.02 13.16Q86.76 13.16 85.81 12.58L85.81 12.58L85.81 12.58Q84.85 12.00 84.34 10.92L84.34 10.92L84.34 10.92Q83.82 9.84 83.82 8.40L83.82 8.40L83.82 8.40Q83.82 6.96 84.34 5.88L84.34 5.88L84.34 5.88Q84.85 4.80 85.81 4.22L85.81 4.22L85.81 4.22Q86.76 3.64 88.00 3.64L88.00 3.64L88.00 3.64Q90.78 3.64 91.59 5.92L91.59 5.92L90.90 6.24L90.90 6.24Q90.58 5.26 89.87 4.77L89.87 4.77L89.87 4.77Q89.17 4.28 88.05 4.28L88.05 4.28L88.05 4.28Q87.01 4.28 86.22 4.78L86.22 4.78L86.22 4.78Q85.43 5.28 84.99 6.21L84.99 6.21L84.99 6.21Q84.56 7.14 84.56 8.40L84.56 8.40L84.56 8.40Q84.56 9.66 84.99 10.59L84.99 10.59L84.99 10.59Q85.41 11.52 86.19 12.02L86.19 12.02L86.19 12.02Q86.97 12.52 88.02 12.52L88.02 12.52L88.02 12.52Q89.14 12.52 89.92 11.97L89.92 11.97L89.92 11.97Q90.71 11.42 91.01 10.42L91.01 10.42L91.71 10.68ZM107.03 3.78L107.03 4.42L103.66 4.42L103.66 13.02L102.96 13.02L102.96 4.42L99.58 4.42L99.58 3.78L107.03 3.78ZM116.49 3.78L116.49 13.02L115.79 13.02L115.79 3.78L116.49 3.78ZM133.50 3.78L133.50 13.02L132.64 13.02L127.74 5.77L127.05 4.54L127.04 4.54L127.08 5.70L127.08 13.02L126.41 13.02L126.41 3.78L127.29 3.78L132.17 11.02L132.87 12.26L132.85 11.10L132.85 3.78L133.50 3.78ZM146.97 8.50L150.77 8.50L150.77 13.02L150.21 13.02L150.18 11.41L150.18 11.41Q149.80 12.25 148.99 12.71L148.99 12.71L148.99 12.71Q148.19 13.16 147.00 13.16L147.00 13.16L147.00 13.16Q145.74 13.16 144.79 12.58L144.79 12.58L144.79 12.58Q143.85 12.00 143.34 10.92L143.34 10.92L143.34 10.92Q142.83 9.84 142.83 8.40L142.83 8.40L142.83 8.40Q142.83 6.96 143.35 5.88L143.35 5.88L143.35 5.88Q143.88 4.80 144.83 4.22L144.83 4.22L144.83 4.22Q145.78 3.64 147.04 3.64L147.04 3.64L147.04 3.64Q148.46 3.64 149.35 4.20L149.35 4.20L149.35 4.20Q150.25 4.76 150.70 5.91L150.70 5.91L150.05 6.24L150.05 6.24Q149.73 5.28 148.97 4.78L148.97 4.78L148.97 4.78Q148.20 4.28 147.04 4.28L147.04 4.28L147.04 4.28Q146.01 4.28 145.22 4.78L145.22 4.78L145.22 4.78Q144.44 5.28 144.00 6.21L144.00 6.21L144.00 6.21Q143.57 7.14 143.57 8.40L143.57 8.40L143.57 8.40Q143.57 10.32 144.49 11.42L144.49 11.42L144.49 11.42Q145.40 12.52 147.03 12.52L147.03 12.52L147.03 12.52Q148.04 12.52 148.74 12.12L148.74 12.12L148.74 12.12Q149.44 11.72 149.77 11.07L149.77 11.07L149.77 11.07Q150.11 10.42 150.11 9.67L150.11 9.67L150.11 9.16L146.97 9.16L146.97 8.50ZM174.69 3.78L174.69 3.78Q176.13 3.78 176.98 4.50L176.98 4.50L176.98 4.50Q177.83 5.22 177.83 6.48L177.83 6.48L177.83 6.48Q177.83 7.74 176.98 8.47L176.98 8.47L176.98 8.47Q176.13 9.20 174.69 9.20L174.69 9.20L172.33 9.20L172.33 13.02L171.63 13.02L171.63 3.78L174.69 3.78ZM174.61 8.54L174.61 8.54Q175.81 8.54 176.45 8.01L176.45 8.01L176.45 8.01Q177.09 7.48 177.09 6.48L177.09 6.48L177.09 6.48Q177.09 5.50 176.45 4.96L176.45 4.96L176.45 4.96Q175.81 4.42 174.61 4.42L174.61 4.42L172.33 4.42L172.33 8.54L174.61 8.54ZM187.54 12.38L193.38 12.38L193.38 13.02L186.84 13.02L186.84 3.78L193.16 3.78L193.16 4.42L187.54 4.42L187.54 7.99L191.98 7.99L191.98 8.65L187.54 8.65L187.54 12.38ZM205.83 3.64L205.83 3.64Q207.13 3.64 208.09 4.22L208.09 4.22L208.09 4.22Q209.05 4.80 209.57 5.87L209.57 5.87L209.57 5.87Q210.08 6.94 210.08 8.40L210.08 8.40L210.08 8.40Q210.08 9.86 209.57 10.93L209.57 10.93L209.57 10.93Q209.05 12.00 208.09 12.58L208.09 12.58L208.09 12.58Q207.13 13.16 205.83 13.16L205.83 13.16L205.83 13.16Q204.53 13.16 203.57 12.58L203.57 12.58L203.57 12.58Q202.61 12.00 202.09 10.93L202.09 10.93L202.09 10.93Q201.57 9.86 201.57 8.40L201.57 8.40L201.57 8.40Q201.57 6.94 202.09 5.87L202.09 5.87L202.09 5.87Q202.61 4.80 203.57 4.22L203.57 4.22L203.57 4.22Q204.53 3.64 205.83 3.64L205.83 3.64ZM205.83 4.28L205.83 4.28Q204.75 4.28 203.96 4.78L203.96 4.78L203.96 4.78Q203.17 5.28 202.74 6.21L202.74 6.21L202.74 6.21Q202.31 7.14 202.31 8.40L202.31 8.40L202.31 8.40Q202.31 9.66 202.74 10.59L202.74 10.59L202.74 10.59Q203.17 11.52 203.96 12.02L203.96 12.02L203.96 12.02Q204.75 12.52 205.83 12.52L205.83 12.52L205.83 12.52Q206.91 12.52 207.70 12.02L207.70 12.02L207.70 12.02Q208.50 11.52 208.93 10.59L208.93 10.59L208.93 10.59Q209.36 9.66 209.36 8.40L209.36 8.40L209.36 8.40Q209.36 7.14 208.93 6.21L208.93 6.21L208.93 6.21Q208.50 5.28 207.70 4.78L207.70 4.78L207.70 4.78Q206.91 4.28 205.83 4.28L205.83 4.28ZM222.47 3.78L222.47 3.78Q223.92 3.78 224.76 4.50L224.76 4.50L224.76 4.50Q225.61 5.22 225.61 6.48L225.61 6.48L225.61 6.48Q225.61 7.74 224.76 8.47L224.76 8.47L224.76 8.47Q223.92 9.20 222.47 9.20L222.47 9.20L220.11 9.20L220.11 13.02L219.41 13.02L219.41 3.78L222.47 3.78ZM222.39 8.54L222.39 8.54Q223.59 8.54 224.23 8.01L224.23 8.01L224.23 8.01Q224.87 7.48 224.87 6.48L224.87 6.48L224.87 6.48Q224.87 5.50 224.23 4.96L224.23 4.96L224.23 4.96Q223.59 4.42 222.39 4.42L222.39 4.42L220.11 4.42L220.11 8.54L222.39 8.54ZM235.33 12.38L240.87 12.38L240.87 13.02L234.63 13.02L234.63 3.78L235.33 3.78L235.33 12.38ZM250.33 12.38L256.17 12.38L256.17 13.02L249.63 13.02L249.63 3.78L255.95 3.78L255.95 4.42L250.33 4.42L250.33 7.99L254.77 7.99L254.77 8.65L250.33 8.65L250.33 12.38Z"></path></g></svg>